<?xml version="1.0" encoding="UTF-8" standalone="no"?>
<!-- Generator: Adobe Illustrator 19.0.0, SVG Export Plug-In . SVG Version: 6.00 Build 0)  -->

<svg
   xmlns:dc="http://purl.org/dc/elements/1.1/"
   xmlns:cc="http://creativecommons.org/ns#"
   xmlns:rdf="http://www.w3.org/1999/02/22-rdf-syntax-ns#"
   xmlns:svg="http://www.w3.org/2000/svg"
   xmlns="http://www.w3.org/2000/svg"
   xmlns:sodipodi="http://sodipodi.sourceforge.net/DTD/sodipodi-0.dtd"
   xmlns:inkscape="http://www.inkscape.org/namespaces/inkscape"
   version="1.1"
   id="Layer_1"
   x="0px"
   y="0px"
   viewBox="0 0 511.999 511.999"
   style="enable-background:new 0 0 511.999 511.999;"
   xml:space="preserve"
   sodipodi:docname="icon6.svg"
   inkscape:version="0.92.1 r15371"><metadata
     id="metadata67"><rdf:RDF><cc:Work
         rdf:about=""><dc:format>image/svg+xml</dc:format><dc:type
           rdf:resource="http://purl.org/dc/dcmitype/StillImage" /><dc:title></dc:title></cc:Work></rdf:RDF></metadata><defs
     id="defs65" /><sodipodi:namedview
     pagecolor="#ffffff"
     bordercolor="#666666"
     borderopacity="1"
     objecttolerance="10"
     gridtolerance="10"
     guidetolerance="10"
     inkscape:pageopacity="0"
     inkscape:pageshadow="2"
     inkscape:window-width="716"
     inkscape:window-height="480"
     id="namedview63"
     showgrid="false"
     inkscape:zoom="0.46093841"
     inkscape:cx="255.9995"
     inkscape:cy="255.9995"
     inkscape:window-x="664"
     inkscape:window-y="157"
     inkscape:window-maximized="0"
     inkscape:current-layer="Layer_1" /><g
     id="g18"
     style="fill:#242830;fill-opacity:1"><g
       id="g16"
       style="fill:#242830;fill-opacity:1"><path
         d="M264.773,451.206c-104.83,0-190.619-83.084-194.98-186.86h9.225c6.394,0,10.434-7.284,7.018-12.712l-33.42-53.073    c-3.099-4.921-10.452-5.11-13.799-0.353L1.473,251.281c-3.797,5.397,0.203,13.065,6.782,13.065h9.534    c2.06,62.899,27.529,121.734,72.244,166.447c46.674,46.675,108.732,72.38,174.74,72.38c4.58,0,8.293-3.713,8.293-8.293v-35.382    C273.065,454.919,269.353,451.206,264.773,451.206z M256.48,486.443c-58.466-2.054-113.139-25.797-154.721-67.377    c-43.542-43.542-67.522-101.434-67.522-163.013c0-4.58-3.713-8.293-8.293-8.293h-1.716l20.986-29.826l18.781,29.826h-2.669    c-4.58,0-8.293,3.713-8.293,8.293c0,113.974,90.525,207.204,203.446,211.578V486.443z"
         id="path14"
         style="fill:#242830;fill-opacity:1" /></g></g><g
     id="g24"
     style="fill:#242830;fill-opacity:1"><g
       id="g22"
       style="fill:#242830;fill-opacity:1"><path
         d="M427.848,89.293l-27.29-58.878c-2.768-5.971-11.411-6.368-14.706-0.659l-4.768,8.256    c-55.503-29.667-119.189-37.027-180.27-20.66c-17.16,4.599-33.787,11.002-49.42,19.031c-4.074,2.093-5.68,7.092-3.588,11.165    c2.092,4.073,7.093,5.679,11.165,3.588c14.587-7.493,30.109-13.471,46.135-17.764c59.478-15.94,121.605-7.76,174.935,23.03    c2.239,1.294,5.044,1.451,7.42,0.436c2.25-0.961,3.584-2.91,4.767-4.957l15.337,33.088l-35.22,1.352    c1.385-2.399,2.815-4.924,2.329-7.798c-0.409-2.415-1.902-4.614-4.029-5.841c-98.702-56.986-224.706-25.206-284.955,70.4    l-16.293-9.407c16.174-25.903,36.838-47.902,61.515-65.468c3.732-2.656,4.603-7.834,1.946-11.564    c-2.656-3.731-7.833-4.603-11.564-1.946c-28.856,20.541-52.586,46.715-70.53,77.796c-2.292,3.966-0.933,9.038,3.034,11.328    l30.642,17.691c3.917,2.262,9.07,0.876,11.328-3.035c52.415-90.784,167.261-123.539,259.316-75.426l-4.612,7.989    c-3.215,5.568,1.117,12.642,7.5,12.433l62.672-2.406C426.45,100.843,430.297,94.576,427.848,89.293z"
         id="path20"
         style="fill:#242830;fill-opacity:1" /></g></g><g
     id="g30"
     style="fill:#242830;fill-opacity:1"><g
       id="g28"
       style="fill:#242830;fill-opacity:1"><path
         d="M478.786,132.493c-2.256-3.907-7.415-5.295-11.328-3.035l-30.642,17.691c-3.907,2.257-5.295,7.415-3.035,11.328    c52.415,90.785,23.358,206.623-64.336,262.287l-4.612-7.989c-3.204-5.548-11.526-5.393-14.517,0.279l-29.253,55.479    c-2.717,5.154,0.807,11.607,6.593,12.127l64.635,5.805c6.557,0.597,11.219-6.697,7.923-12.406l-4.766-8.254    c30.193-18.749,55.379-43.096,74.953-72.471c2.54-3.811,1.509-8.959-2.303-11.499c-3.81-2.541-8.96-1.508-11.499,2.303    c-19.665,29.511-45.423,53.588-76.56,71.565c-3.966,2.29-5.325,7.362-3.035,11.328l0.858,1.486l-36.323-3.262l16.439-31.178    c1.379,2.388,2.661,4.72,5.346,5.818c2.354,0.963,5.11,0.803,7.316-0.472c98.704-56.987,134.182-181.999,81.509-281.978    l16.291-9.406c27.454,51.661,34.23,110.879,19.009,167.68c-3.967,14.808-9.381,29.211-16.09,42.809    c-2.027,4.107-0.339,9.079,3.768,11.105c4.108,2.027,9.079,0.341,11.105-3.768c7.188-14.571,12.988-29.998,17.237-45.855    C520.557,256.254,511.79,189.659,478.786,132.493z"
         id="path26"
         style="fill:#242830;fill-opacity:1" /></g></g><g
     id="g32" /><g
     id="g34" /><g
     id="g36" /><g
     id="g38" /><g
     id="g40" /><g
     id="g42" /><g
     id="g44" /><g
     id="g46" /><g
     id="g48" /><g
     id="g50" /><g
     id="g52" /><g
     id="g54" /><g
     id="g56" /><g
     id="g58" /><g
     id="g60" /><path
     inkscape:connector-curvature="0"
     d="m 370.85913,221.8583 c -0.32969,-5.69795 -7.10662,-10.15042 -20.6605,-13.54721 0.45624,-0.99906 0.71267,-2.03808 0.716,-3.11706 v -23.29801 h -0.0566 c -1.19221,-19.40835 -80.7238,-19.98114 -89.85851,-19.98114 -9.13472,0 -88.66631,0.57279 -89.85852,19.98114 h -0.0566 v 0.43293 0 0 22.87507 c 0.0166,6.32736 8.18227,11.27935 20.33081,14.96587 -0.16651,0.55282 -0.26642,1.11562 -0.29972,1.68841 h -0.0499 v 0.43293 0 0 22.83511 c -13.08765,3.37015 -19.62481,7.75934 -19.94784,13.36405 h -0.0333 v 0.43293 0 0 22.87507 c 0.01,4.40584 3.9829,8.14232 10.48343,11.25604 -0.24643,0.67603 -0.39962,1.36538 -0.44291,2.07138 h -0.0499 v 0.43293 0 0 22.87507 c 0.0266,11.07621 24.96643,17.95306 52.67694,21.16336 0.20314,0.04 0.38963,0.12322 0.6061,0.12322 0.0633,0 0.11655,-0.0333 0.17983,-0.0366 5.34162,0.60277 10.76983,1.07232 16.14143,1.40867 0.11322,0.0133 0.21313,0.0666 0.32969,0.0666 0.0633,0 0.11322,-0.0333 0.17317,-0.0366 6.82022,0.41294 13.53056,0.62274 19.80797,0.62274 6.2774,0 12.98774,-0.2098 19.80797,-0.62607 0.0599,0.003 0.11322,0.0366 0.17317,0.0366 0.11655,0 0.21646,-0.0566 0.32968,-0.0666 5.3716,-0.33635 10.79981,-0.80257 16.14144,-1.40867 0.0633,0 0.11655,0.0333 0.17983,0.0333 0.21646,0 0.40295,-0.0833 0.60609,-0.12322 27.71051,-3.2103 52.64697,-10.09048 52.67695,-21.17002 v -23.29801 h -0.0533 c -0.23311,-4.08281 -3.71316,-7.4896 -10.58667,-10.33691 0.4196,-0.96242 0.64939,-1.96148 0.64939,-2.99717 v -21.76612 c 11.95538,-3.67653 19.96448,-8.59522 19.98114,-14.86597 v -23.29801 z m -26.96454,61.01241 -1.1356,0.99573 c -1.74835,1.54188 -4.66227,3.09708 -8.49531,4.59566 v -15.87834 c 3.95959,-1.3787 7.32974,-2.90726 9.99057,-4.58235 v 13.78033 c 0,0.34301 -0.12655,0.70933 -0.35966,1.08897 z m -74.48303,15.4754 c -0.48621,0.0133 -0.97575,0.02 -1.46529,0.03 -1.18888,0.0233 -2.40773,0.03 -3.61325,0.04 v -16.6343 c 0.9158,-0.01 1.8316,-0.0233 2.7474,-0.04 0.1765,-0.003 0.353,-0.007 0.5295,-0.01 3.3535,-0.0633 6.70701,-0.16651 10.04386,-0.3197 v 16.62764 c -0.71266,0.0366 -1.42866,0.0699 -2.15131,0.0999 -2.00477,0.0899 -4.02953,0.15652 -6.09091,0.20648 z m -14.54294,0.0466 c -1.52523,-0.0266 -3.0438,-0.0633 -4.55237,-0.1099 -0.18649,-0.007 -0.37299,-0.0133 -0.55948,-0.02 -1.81495,-0.0599 -3.61658,-0.13654 -5.40489,-0.22312 v -16.62431 c 3.33685,0.15652 6.69035,0.25975 10.04385,0.3197 0.1765,0.003 0.353,0.007 0.52617,0.01 0.9158,0.0167 1.8316,0.03 2.74741,0.04 v 16.64429 c -0.64606,-0.007 -1.29212,-0.007 -1.93484,-0.0167 -0.29306,-0.007 -0.57613,-0.0166 -0.86585,-0.02 z m -60.1499,-7.59284 c -0.10989,-0.0333 -0.21313,-0.0633 -0.32302,-0.0932 v -16.08815 c 3.11039,0.83921 6.4539,1.60515 9.99057,2.30116 v 16.25466 c -3.05712,-0.64939 -5.87779,-1.33208 -8.44537,-2.03142 -0.40628,-0.11655 -0.82588,-0.22645 -1.22218,-0.34301 z m 70.19375,27.57731 c 0.9158,0.0167 1.8316,0.03 2.74741,0.04 v 16.64762 c -4.60233,-0.0433 -9.0448,-0.1765 -13.32076,-0.3863 v -16.62764 c 3.33685,0.15652 6.69035,0.25975 10.04385,0.3197 0.1765,0 0.353,0.003 0.5295,0.007 z m 12.68469,-0.01 c 3.3535,-0.0633 6.70701,-0.16651 10.04386,-0.3197 v 16.62767 c -4.27597,0.2098 -8.71844,0.34301 -13.32076,0.3863 v -16.64762 c 0.9158,-0.01 1.8316,-0.0233 2.7474,-0.04 0.1765,0 0.353,-0.003 0.5295,-0.007 z m 26.69481,-1.50525 v 16.53773 c -3.20032,0.33634 -6.53051,0.63273 -9.99057,0.87583 v -16.60765 c 3.37681,-0.2198 6.71366,-0.48954 9.99057,-0.80591 z m 6.66038,-0.71932 c 3.43342,-0.41294 6.76694,-0.8825 9.99057,-1.40534 v 16.35123 c -3.13704,0.55281 -6.47056,1.06233 -9.99057,1.52523 z m 16.65095,-2.59422 c 3.53666,-0.69601 6.88017,-1.46195 9.99057,-2.30116 v 16.08815 c -2.9672,0.85586 -6.30738,1.68508 -9.99057,2.46767 z m -113.22646,0 v 16.25466 c -3.68319,-0.78259 -7.02338,-1.61181 -9.99057,-2.46767 v -16.08815 c 3.11039,0.83921 6.4539,1.60848 9.99057,2.30116 z m 6.66038,1.19221 c 3.22362,0.52284 6.55714,0.9924 9.99057,1.40534 v 16.47112 c -3.52002,-0.4629 -6.85354,-0.97242 -9.99057,-1.52523 z m 16.65095,2.12133 c 3.2769,0.31637 6.61375,0.58611 9.99057,0.80924 v 16.60766 c -3.46007,-0.24311 -6.79026,-0.5395 -9.99057,-0.87584 z m -8.26221,-19.91453 c -0.33968,-0.0333 -0.67602,-0.0699 -1.01237,-0.10324 -0.23978,-0.0233 -0.47622,-0.0533 -0.71599,-0.0766 v -16.5344 c 3.2769,0.31637 6.61375,0.58612 9.99057,0.80924 v 16.59433 c -2.79736,-0.19981 -5.56142,-0.42626 -8.26221,-0.68934 z m -8.38874,-17.43688 v 16.47112 c -3.52002,-0.4629 -6.85354,-0.97242 -9.99057,-1.52523 v -16.35123 c 3.22362,0.52284 6.55714,0.99573 9.99057,1.40534 z m 65.49151,17.96971 c -0.73264,0.0566 -1.47194,0.11322 -2.2179,0.16651 v -16.60766 c 3.37681,-0.22313 6.71366,-0.48954 9.99057,-0.80924 v 16.53773 c -2.05806,0.21646 -4.16274,0.4196 -6.32404,0.5961 -0.48287,0.0433 -0.96575,0.0799 -1.44863,0.11656 z m 14.43305,-1.49859 v -16.47109 c 3.43342,-0.41294 6.76694,-0.8825 9.99057,-1.40534 v 16.35123 c -3.13704,0.55281 -6.47056,1.06566 -9.99057,1.52523 z m 16.65095,-19.06534 c 3.53666,-0.69601 6.88017,-1.46195 9.99057,-2.30116 v 16.08815 c -2.9672,0.85586 -6.30738,1.68508 -9.99057,2.46767 z m -45.54035,-15.21231 c -2.50431,-0.0633 -4.952,-0.15984 -7.35639,-0.2764 -0.12988,-0.007 -0.25976,-0.0133 -0.3863,-0.0167 v -16.62764 c 3.33685,0.15652 6.69035,0.25975 10.04385,0.3197 0.1765,0.003 0.353,0.007 0.52617,0.01 0.9158,0.0167 1.8316,0.03 2.74741,0.04 v 16.62764 c -1.62181,-0.0166 -3.25693,-0.0233 -4.83877,-0.0599 -0.2431,-0.007 -0.49287,-0.01 -0.73597,-0.0167 z M 194.3957,214.11225 V 198.0241 c 3.11039,0.83921 6.4539,1.60515 9.99057,2.30116 v 16.25466 c -0.40962,-0.0866 -0.83255,-0.17317 -1.23217,-0.25975 -1.77167,-0.38964 -3.50003,-0.79592 -5.15181,-1.22551 -1.25881,-0.32303 -2.45435,-0.65272 -3.60659,-0.98241 z m 60.5262,-8.96154 c 0.9158,0.0167 1.8316,0.03 2.74741,0.04 v 16.62764 c -4.48244,-0.0433 -8.93823,-0.15985 -13.32076,-0.37964 v -16.61432 c 3.33685,0.15652 6.69035,0.25975 10.04385,0.3197 0.1765,0 0.353,0.003 0.5295,0.007 z m 12.68469,-0.01 c 3.3535,-0.0633 6.70701,-0.16651 10.04386,-0.3197 v 16.61432 c -0.56614,0.0266 -1.10896,0.0666 -1.67842,0.0932 -0.0466,0.003 -0.0933,0.003 -0.1432,0.007 -2.23456,0.0999 -4.51241,0.17317 -6.82023,0.22646 -0.35966,0.01 -0.71932,0.0133 -1.07898,0.0233 -1.18555,0.0233 -2.39774,0.0266 -3.59993,0.04 v -16.6343 c 0.9158,-0.01 1.8316,-0.0233 2.7474,-0.04 0.1765,-0.003 0.353,-0.007 0.5295,-0.01 z m 75.88504,1.67175 -0.0932,-0.02 -1.21219,0.94245 c -1.75834,1.3687 -4.45913,2.75406 -7.92252,4.0928 V 195.986 c 3.95959,-1.3787 7.32974,-2.90726 9.99057,-4.58235 v 13.78033 c 0,0.50619 -0.26642,1.05234 -0.76262,1.62846 z m -42.52985,12.55482 v -16.45114 c 3.43342,-0.41294 6.76694,-0.8825 9.99057,-1.40534 v 16.32459 c -3.15702,0.55947 -6.48055,1.07232 -9.99057,1.53189 z m 16.65095,-2.81401 v -16.22802 c 3.53666,-0.69601 6.88017,-1.46195 9.99057,-2.30116 v 16.05152 c -2.98385,0.86918 -6.34402,1.69839 -9.99057,2.47766 z M 294.3014,203.63546 v 16.51774 c -3.21697,0.33968 -6.54716,0.63607 -9.99057,0.8825 v -16.591 c 3.37681,-0.22313 6.71366,-0.49287 9.99057,-0.80924 z m -66.6038,16.5244 v -16.5244 c 3.2769,0.31637 6.61375,0.58611 9.99057,0.80924 v 16.57768 c -3.39014,-0.2431 -6.73365,-0.51951 -9.99057,-0.86252 z m -6.66038,-17.24372 v 16.45447 c -0.65938,-0.0866 -1.3454,-0.15652 -1.99812,-0.24643 -0.42626,-0.06 -0.83255,-0.12322 -1.25215,-0.18317 -1.92485,-0.2764 -3.80641,-0.57279 -5.65133,-0.8825 -0.36965,-0.0633 -0.72598,-0.12987 -1.08897,-0.19315 v -16.35123 c 3.22362,0.51951 6.55714,0.9924 9.99057,1.40201 z m 35.8062,58.03522 c -0.44958,-0.0333 -0.90248,-0.0666 -1.34873,-0.0999 -2.13132,-0.16651 -4.21269,-0.34967 -6.2441,-0.55282 -0.43626,-0.0433 -0.87251,-0.0899 -1.30544,-0.1332 -0.0899,-0.01 -0.1765,-0.0233 -0.26641,-0.03 v -16.53773 c 3.2769,0.31637 6.61375,0.58611 9.99057,0.80924 v 16.59766 c -0.26975,-0.02 -0.55615,-0.0333 -0.82589,-0.0533 z m -22.00257,-2.48765 c -1.31875,-0.2098 -2.55758,-0.43626 -3.81306,-0.65605 v -16.33121 c 3.22362,0.52284 6.55714,0.9924 9.99057,1.40534 v 16.47112 c -2.03808,-0.26975 -4.03286,-0.54948 -5.94772,-0.8492 -0.0766,-0.0166 -0.15319,-0.03 -0.22979,-0.04 z M 224.36741,240.2842 v 16.22802 c -3.67986,-0.78926 -7.01671,-1.62846 -9.99057,-2.50097 v -16.02821 c 3.11039,0.83921 6.4539,1.60848 9.99057,2.30116 z m -16.65095,-4.3359 v 15.82173 c -5.23506,-2.02143 -8.61188,-4.08615 -9.71084,-5.92441 l -0.22312,-0.37298 c -0.02,-0.10324 -0.0533,-0.21313 -0.0566,-0.31637 v -13.79032 c 2.66082,1.67509 6.03097,3.20365 9.99057,4.58235 z m 79.87127,9.15469 c 3.3535,-0.0633 6.70701,-0.16651 10.04386,-0.3197 v 16.61099 c -4.37587,0.21646 -8.82501,0.33635 -13.32076,0.38297 v -16.62431 c 0.9158,-0.01 1.8316,-0.0233 2.7474,-0.04 0.1765,-0.003 0.353,-0.007 0.5295,-0.01 z m 43.03605,12.77794 c -1.46196,0.25309 -2.93723,0.50286 -4.45247,0.73264 -0.86918,0.13321 -1.75834,0.25975 -2.65083,0.3863 -0.84254,0.11989 -1.71838,0.22312 -2.57423,0.33302 v -16.45447 c 3.43342,-0.41294 6.76694,-0.8825 9.99057,-1.40534 v 16.35123 c -0.10657,0.02 -0.20981,0.04 -0.31304,0.0566 z m -22.54872,2.84398 c -1.24216,0.10323 -2.52428,0.16984 -3.78309,0.25975 v -16.57768 c 3.37681,-0.22313 6.71366,-0.48954 9.99057,-0.80924 v 16.52107 c -1.93484,0.20315 -3.86635,0.40629 -5.85448,0.5728 -0.11989,0.01 -0.23311,0.0233 -0.353,0.0333 z m 38.05741,-6.24411 c -1.65843,0.4629 -3.41344,0.89582 -5.20508,1.31876 -0.82922,0.19315 -1.67509,0.3863 -2.54094,0.57279 -0.25642,0.0566 -0.5295,0.10657 -0.78925,0.16318 v -16.248 c 3.53666,-0.69601 6.88017,-1.46195 9.99057,-2.30116 v 16.08815 c -0.47955,0.13321 -0.96243,0.26974 -1.4553,0.40628 z m 18.06628,-32.40608 c -0.30637,2.2612 -5.43154,5.26836 -14.57957,8.0957 v 0 c -11.78221,3.63989 -30.21814,6.97341 -53.58276,8.00577 -1.19553,0.05 -2.38774,0.0999 -3.60659,0.13987 -0.99573,0.0333 -1.99478,0.0633 -3.01049,0.0899 -2.7574,0.0599 -5.55476,0.10323 -8.4387,0.10323 -2.88395,0 -5.68131,-0.0433 -8.43871,-0.10656 -1.01237,-0.0233 -2.01143,-0.0566 -3.01049,-0.0899 -1.22218,-0.0366 -2.41439,-0.0899 -3.60659,-0.13987 -23.36462,-1.03236 -41.80388,-4.36588 -53.58276,-8.00577 v 0 c -9.07477,-2.80402 -14.18994,-5.78788 -14.56958,-8.03908 0.0166,-0.0633 0.0166,-0.11656 0.0566,-0.19648 0.22645,0.0566 0.47955,0.10323 0.70933,0.15984 1.30211,0.30971 2.63751,0.60943 3.99623,0.89583 6.61709,1.42532 13.95017,2.59421 21.76279,3.4867 0.0266,0 0.0466,0.0133 0.0699,0.0133 0.007,0 0.0133,-0.003 0.0166,-0.003 5.32164,0.60609 10.8431,1.08231 16.51108,1.41866 0.0433,0 0.0799,0.0233 0.12322,0.0233 0.0233,0 0.04,-0.0133 0.0633,-0.0133 4.07948,0.23977 8.21225,0.41627 12.39497,0.50952 2.56091,0.0633 5.07521,0.0966 7.5229,0.0966 1.74835,0 3.53999,-0.02 5.34828,-0.0533 24.19716,-0.37298 46.62266,-3.25027 62.22793,-7.70939 0.71932,-0.20314 1.42199,-0.41295 2.11467,-0.62275 0.42294,-0.12987 0.85586,-0.25642 1.26547,-0.3863 1.20553,-0.3863 2.36111,-0.78259 3.47672,-1.19554 0.19315,-0.0733 0.37631,-0.14653 0.56946,-0.21979 0.94245,-0.35633 1.84826,-0.72598 2.71411,-1.10229 0.24976,-0.1099 0.50619,-0.21647 0.74929,-0.32636 0.92247,-0.41628 1.81496,-0.84254 2.64084,-1.28545 0.37298,-0.19649 0.69601,-0.39963 1.04568,-0.59944 0.39963,-0.22978 0.79925,-0.4629 1.1689,-0.69934 0.2098,-0.13321 0.45957,-0.25975 0.65938,-0.39296 14.90926,3.23361 18.83888,6.77027 19.21852,8.14897 z M 260.9995,168.57522 c 54.9115,0 82.68528,8.64517 83.20479,13.60716 -0.40295,2.25121 -5.51479,5.22507 -14.56625,8.02243 v 0 c -11.78221,3.63989 -30.21814,6.97341 -53.58276,8.00577 -1.19553,0.0499 -2.38774,0.0999 -3.60659,0.13987 -0.99573,0.0333 -1.99478,0.0633 -3.01049,0.0899 -2.7574,0.0633 -5.55476,0.10656 -8.4387,0.10656 -2.88395,0 -5.68131,-0.0433 -8.43871,-0.10656 -1.01237,-0.0233 -2.01143,-0.0566 -3.01049,-0.0899 -1.22218,-0.0366 -2.41439,-0.0899 -3.60659,-0.13987 -23.36462,-1.03236 -41.80388,-4.36588 -53.58276,-8.00577 v 0 c -9.05479,-2.79736 -14.1633,-5.77122 -14.56625,-8.02243 0.51951,-4.96199 28.29329,-13.60716 83.2048,-13.60716 z m -83.25475,36.61877 v -13.79032 c 2.66082,1.67509 6.03097,3.20365 9.99057,4.58235 v 15.94494 c -6.47722,-2.4277 -9.98391,-4.86207 -9.99057,-6.73697 z m 16.13144,46.0865 c 0.0499,0.0533 0.12654,0.0999 0.1765,0.15319 4.55903,4.60232 14.00011,8.21891 25.75236,10.91636 0.26974,0.0633 0.55614,0.12322 0.82921,0.18649 0.86252,0.19315 1.73836,0.38297 2.62419,0.56613 10.79315,2.29784 23.67765,3.9596 37.7144,4.78216 0.01,0 0.0167,0.003 0.0233,0.003 0.007,0 0.01,-0.003 0.0133,-0.003 4.50907,0.26308 9.12139,0.44624 13.83028,0.52617 2.08469,0.0433 4.13609,0.0699 6.14087,0.0699 2.29783,0 4.6556,-0.0266 7.05334,-0.0833 4.35589,-0.0899 8.6485,-0.26975 12.88117,-0.51618 0.0167,0 0.03,0.01 0.0466,0.01 0.03,0 0.0533,-0.0166 0.0833,-0.0166 14.07338,-0.82922 27.27759,-2.50764 38.44371,-4.92202 -2.41771,1.26547 -5.72792,2.57423 -9.8507,3.8497 v 0 c -12.43826,3.84303 -32.30284,7.34306 -57.54901,8.15563 -0.74929,0.0233 -1.4886,0.05 -2.24788,0.0699 -0.8159,0.02 -1.64511,0.0333 -2.47433,0.05 -2.09469,0.0333 -4.2027,0.0633 -6.36732,0.0633 -2.88395,0 -5.68131,-0.0433 -8.43871,-0.10656 -1.01237,-0.0233 -2.01143,-0.0566 -3.01049,-0.0899 -1.22218,-0.0366 -2.41439,-0.0899 -3.60659,-0.13987 -23.36462,-1.03236 -41.80388,-4.36588 -53.58276,-8.00577 v 0 c -9.15802,-2.83067 -14.28319,-5.84116 -14.57957,-8.10236 0.36965,-1.25215 3.73647,-4.38586 16.09481,-7.41633 z m -16.13144,30.50787 v -13.79032 c 2.66082,1.67509 6.03097,3.20365 9.99057,4.58235 v 15.88167 l -1.90154,-0.7393 -0.04,0.04 c -5.22839,-2.16795 -8.0424,-4.29594 -8.04906,-5.97436 z m 9.99057,36.63209 v -13.79032 c 2.66082,1.67509 6.03097,3.20365 9.99057,4.58235 v 15.94494 c -6.47722,-2.4277 -9.98391,-4.86207 -9.99057,-6.73697 z m 156.51893,6.73697 v -15.94157 c 3.95959,-1.3787 7.32974,-2.90726 9.99057,-4.58235 v 13.78033 c -0.003,1.8749 -3.51335,4.3126 -9.99057,6.74363 z m 9.94727,-29.77855 c -0.36299,2.25453 -5.47816,5.24505 -14.57291,8.05573 v 0 c -11.78221,3.63989 -30.21814,6.97341 -53.58276,8.00577 -1.19553,0.05 -2.38774,0.0999 -3.60659,0.13987 -0.99573,0.0333 -1.99478,0.0633 -3.01049,0.0899 -2.7574,0.0599 -5.55476,0.10323 -8.4387,0.10323 -2.88395,0 -5.68464,-0.0433 -8.44537,-0.10656 -1.00238,-0.0233 -1.99145,-0.0566 -2.98052,-0.0899 -1.22884,-0.04 -2.4277,-0.0899 -3.6299,-0.13987 -23.36462,-1.03236 -41.80055,-4.36588 -53.58276,-8.00577 v 0 c -8.80835,-2.72077 -13.89688,-5.61137 -14.53628,-7.8426 0.9924,0.34634 2.02143,0.68269 3.0771,1.01238 0.10656,0.0333 0.21313,0.0666 0.31969,0.0966 0.89916,0.27641 1.81829,0.54282 2.76073,0.80258 0.35633,0.0999 0.71599,0.19981 1.07898,0.29638 0.53283,0.1432 1.07898,0.27974 1.62514,0.41961 12.12855,3.10706 27.6106,5.30832 44.32482,6.29739 0.007,0 0.01,0.003 0.0167,0.003 0.003,0 0.007,-0.003 0.01,-0.003 5.16179,0.30637 10.43348,0.4962 15.76179,0.55947 1.41866,0.0266 2.82733,0.04 4.20936,0.04 1.83493,0 3.71316,-0.0233 5.6147,-0.0566 4.85874,-0.0799 9.65422,-0.25976 14.34312,-0.53949 0.01,0 0.0167,0.007 0.0267,0.007 0.0167,0 0.0266,-0.01 0.0433,-0.01 5.71127,-0.34301 11.23939,-0.83255 16.55104,-1.44198 0.02,0 0.0366,0.01 0.0566,0.01 0.0733,0 0.1332,-0.0366 0.20647,-0.0433 5.91442,-0.68269 11.52245,-1.52189 16.72754,-2.49764 1.07232,-0.19648 2.12799,-0.39962 3.17367,-0.60942 0.23312,-0.0466 0.46623,-0.0933 0.69934,-0.1432 9.83405,-2.0181 18.34602,-4.6323 24.18717,-7.87257 0.3197,-0.17317 0.61942,-0.353 0.92247,-0.5295 0.36965,-0.21979 0.72265,-0.44292 1.06566,-0.66937 0.31969,-0.20647 0.68935,-0.40628 0.9824,-0.61609 6.5738,2.34446 8.38542,4.44248 8.60188,5.27836 z m 0.0433,-43.48563 v -15.94161 c 3.95959,-1.3787 7.32974,-2.90726 9.99057,-4.58235 v 13.78033 c -0.003,1.8749 -3.51335,4.3126 -9.99057,6.74363 z"
     id="path2"
     style="fill:#f84a4a;fill-opacity:1;stroke-width:1" /></svg>